<svg width="261" height="159" viewBox="0 0 189 143" xmlns="http://www.w3.org/2000/svg"><g stroke-width="2" fill="none" fill-rule="evenodd"><path d="M16.57 72.643c.204 3.88.695 7.244 1.47 10.09 1.78 6.535 4.411 11.464 8.986 15.608 5.338 4.837 4.064 12.651-1.14 15.977-5.2 3.322-11.447 1.877-15.242-4.933C4.136 97.708 1 84.342 1 69.466c0-17.034 4.914-33.38 14.058-47.574 5.067-7.865 15.271-14.44 24.537-15.608 4.72-.595 6.932-.336 7.352 1.333.302 1.2-.137 1.801-2.446 4.327-.15.164-.263.288-.372.41-1.2 1.334-1.688 2.146-1.6 2.39l.091.255c.018.05.018.05.046.153.027.077.027.077-.003.476-.186.495-.186.495-.99.76-.492-.114-.492-.114-.62-.229-.149-.123-.495-.661-.387-.504a4.3 4.3 0 00-1.077-1.116c-1.347-.94-3.037-.767-5.396 1.295l-.159.139-.2.063c-10.684 3.343-12.89 7.64-12.89 22.154 0 4.586.724 7.69 2.643 13.05l.304.847c.12.333.212.594.302.848 1.514 4.289 2.155 7.124 2.155 10.746 0 6.596-1.817 9.718-6.404 9.718-1.355 0-2.49-.254-3.373-.756zm24.096-56.988a.004.004 0 000 0z" stroke="#0B3A7E" fill="#6097DF"/><path d="M181.75 99.5a89.621 89.621 0 005.75-31.675c0-24.582-9.898-46.897-26-63.325" stroke="#0B3A7E"/><g stroke="#0B3A7E"><path d="M155.678 8.802l6.384 6.384 2.405-2.405a13.43 13.43 0 003.768-7.398l.303-1.914a1 1 0 00-1.144-1.144l-1.914.303a13.43 13.43 0 00-7.397 3.769l-2.405 2.405z" fill="#6097DF"/><path d="M131.39 19.468l-4.713-3.984a1 1 0 00-1.41.119l-.004.006-9.506 11.417-14.756 15.24a1 1 0 00.073 1.46l5.902 4.987a3 3 0 004.228-.355l.013-.017L131.76 23.68a3 3 0 00-.37-4.211zM30.513 138.964a6 6 0 008.485 0l5.657-5.657a6 6 0 10-8.485-8.485l-5.657 5.656a6 6 0 000 8.486zM158.211 33.132l7.44-18.66c-.845-2.304-2.047-4.231-3.608-5.792-1.557-1.557-3.455-2.733-5.705-3.53l-18.611 7.498 20.484 20.484z" fill="#3A6CA6"/><path d="M53.565 130.303l104.67-96.93c-1.793-5.14-4.415-9.43-7.865-12.88-3.45-3.45-7.74-6.072-12.88-7.865l-96.93 104.67c1.203 2.997 2.92 5.61 5.158 7.847 2.237 2.237 4.85 3.955 7.847 5.158z" fill="#6097DF"/><path d="M50.552 134.178l6.4-6.4a75.378 75.378 0 01-7.543-6.598 75.378 75.378 0 01-6.599-7.544l-6.4 6.4a63.39 63.39 0 006.507 7.635 63.39 63.39 0 007.635 6.507z" fill="#6097DF"/></g><path d="M75.926 46.633a9.068 9.068 0 00-.195 12.622l73.617 78.32c.088.092.177.184.267.274 4.84 4.84 12.688 4.84 17.528 0 .09-.09.18-.182.267-.275 4.688-4.988 4.445-12.831-.542-17.52l-78.32-73.617a9.068 9.068 0 00-12.622.196z" stroke="#0B3A7E" fill="#E1EDFB"/><path d="M63.648 47.502l9.447 9.447c3.24-1.19 5.954-2.885 8.154-5.085s3.895-4.915 5.085-8.154L76.9 34.278c-1.245 3.107-2.963 5.76-5.152 7.948-2.2 2.2-4.903 3.96-8.1 5.276z" stroke="#0B3A7E" fill="#9AC0EE"/><g stroke="#063880"><path d="M75.406 37.82c6.186-10.71 3.44-22.078-7.065-30.267C58.618-.027 46.65.076 34.988 5.878c-9.193 4.574-16.862 12.394-15.89 16.047.273 1.402.79 2.26 1.704 2.618.688.269 1.212.217 2.504-.071 2.458-.55 3.743-.495 5.704.736.846.532 1.72 1.276 2.626 2.261 1.65 1.794 2.585 3.463 4.364 7.357a82.916 82.916 0 001.25 2.661c2.124 4.277 4.44 7.078 8.274 9.29 10.24 5.91 23.621 1.88 29.882-8.957z" fill="#3A6CA6"/><path d="M59.96 20.45c3.521-.211 6.938-1.185 9.074-3.23 3.735-3.58 3.91-6.08-.693-9.667C58.618-.027 46.65.076 34.988 5.878c-9.193 4.574-16.862 12.394-15.89 16.047.273 1.402.79 2.26 1.704 2.618.688.269 1.212.217 2.504-.071 2.458-.55 3.743-.495 5.704.736.846.532 1.72 1.276 2.626 2.261 1.65 1.794 2.585 3.463 4.364 7.357a82.916 82.916 0 001.25 2.661l.12.238c2.036 4.041 11.935 5.628 16.566 2.333C61.665 34.56 62.74 27.93 59.96 20.45z" fill="#9AC0EE"/></g><path stroke="#0B3A7E" d="M176.593 97.36l9.031 3.814-3.833 8.988-9.031-3.815z"/></g></svg>