<?xml version="1.0" encoding="UTF-8"?>
<svg width="261px" height="159px" viewBox="0 0 189 143" version="1.1" xmlns="http://www.w3.org/2000/svg" xmlns:xlink="http://www.w3.org/1999/xlink">
    <!-- Generator: Sketch 59.1 (86144) - https://sketch.com -->
    <title>Icon_AboutMe_drawing</title>
    <desc>Created with Sketch.</desc>
    <g id="Welcome" stroke="none" stroke-width="1" fill="none" fill-rule="evenodd">
        <g id="About-me" transform="translate(-225.000000, -584.000000)" stroke-width="2">
            <g id="digital-drawing-and-painting" transform="translate(130.585000, 545.000000)">
                <g id="Icon_AboutMe_drawing" transform="translate(78.479984, 0.149375)">
                    <path d="M32.5056758,111.4938 C32.7095136,115.373307 33.2005005,118.737523 33.9757561,121.584329 C35.7551255,128.118327 38.3864975,133.047442 42.9607959,137.19166 C48.2993658,142.028291 47.024948,149.84299 41.8209998,153.16853 C36.6219561,156.490936 30.3744298,155.045285 26.5793069,148.236111 C20.070764,136.558544 16.9350159,123.1927 16.9350159,108.316955 C16.9350159,91.2823746 21.8492361,74.9365477 30.9932753,60.7422734 C36.0595656,52.8778808 46.2641111,46.302915 55.5295638,45.1350696 C60.2506676,44.5400075 62.4621161,44.7988805 62.8822602,46.4678317 C63.1842263,47.667341 62.7447607,48.2688785 60.4363024,50.7942892 C60.2864918,50.9581792 60.1731586,51.0828886 60.064399,51.2038311 C58.864103,52.5385815 58.3762798,53.3506006 58.4636982,53.5941141 C58.5181625,53.7447999 58.5414834,53.8093278 58.5553828,53.8495485 C58.5729585,53.8996706 58.5729585,53.8996706 58.6008223,54.0028064 C58.6282065,54.0792504 58.6282065,54.0792504 58.5981704,54.4782611 C58.4117179,54.9741194 58.4117179,54.9741194 57.6083704,55.2385893 C57.1155799,55.1242759 57.1155799,55.1242759 56.9886903,55.0097511 C56.8394767,54.886987 56.4931455,54.3486514 56.6007281,54.5056797 C56.3062199,54.0758087 55.9557888,53.6910261 55.523657,53.3894067 C54.1774361,52.4497715 52.4870776,52.6227053 50.1280063,54.6848844 L49.9694595,54.8234779 L49.7684849,54.8863622 C39.0848508,58.2292393 36.8793054,62.5273359 36.8793054,77.0410307 C36.8793054,81.627052 37.6032311,84.7308639 39.5223938,90.0914308 C39.5813197,90.2560215 39.7878478,90.8315523 39.8259432,90.9378788 C39.9451804,91.2706771 40.038304,91.5320241 40.1277322,91.7853962 C41.641556,96.0744314 42.282519,98.9091295 42.282519,102.531364 C42.282519,109.127697 40.4664656,112.249337 35.8793054,112.249337 C34.5238137,112.249337 33.3893479,111.995489 32.5056758,111.4938 Z M56.6007281,54.5056797 C56.6007338,54.5056881 56.6007396,54.5056966 56.6007454,54.505705 C56.6007396,54.5056966 56.6007338,54.5056882 56.6007281,54.5056797 Z" id="Path" stroke="#0B3A7E" fill="#6097DF"></path>
                    <path d="M237.935016,83.6010185 C228.066078,79.8818913 217.395428,77.850625 206.259701,77.850625 C181.678255,77.850625 159.363028,87.7485596 142.935016,103.850625" id="Path" stroke="#0B3A7E" transform="translate(190.435016, 90.850625) rotate(-270.000000) translate(-190.435016, -90.850625) "></path>
                    <g id="Group-10" transform="translate(0.935016, 0.850625)">
                        <g id="Group-9" transform="translate(113.103358, 106.470775) scale(-1, -1) rotate(-315.000000) translate(-113.103358, -106.470775) translate(93.103358, 7.470775)" stroke="#0B3A7E">
                            <path d="M12.4529115,196.581632 L21.4813082,196.581632 L21.4813082,193.180548 C21.4813082,190.343782 20.583031,187.57987 18.9152796,185.285127 L17.7760392,183.717588 C17.7144057,183.632783 17.6398203,183.558198 17.5550157,183.496565 C17.1082563,183.171873 16.4828719,183.270829 16.1581805,183.717588 L15.01894,185.285127 C13.3511887,187.57987 12.4529115,190.343782 12.4529115,193.180548 L12.4529115,196.581632 Z" id="Polygon" fill="#6097DF" transform="translate(16.967110, 189.242610) rotate(-180.000000) translate(-16.967110, -189.242610) "></path>
                            <path d="M31.1125102,157.188201 L37.2622818,156.671717 C37.812629,156.625497 38.2213046,156.141883 38.1750841,155.591536 C38.1747659,155.587802 38.1747659,155.587802 38.174429,155.58407 L36.8229803,140.789039 L36.4801134,119.578546 C36.4711869,119.026334 36.0162938,118.585913 35.4640812,118.59484 C35.4415407,118.595204 35.4190189,118.596331 35.3965545,118.598217 L27.6971563,119.244845 C26.0461145,119.383506 24.8200879,120.834347 24.9587492,122.485389 C24.9596532,122.496002 24.9596532,122.496002 24.9606074,122.50661 L27.8738241,154.471015 C28.023451,156.112752 29.4697522,157.326166 31.1125102,157.188201 Z" id="Rectangle" fill="#3A6CA6"></path>
                            <path d="M17.9476874,1.36025039 C14.6339789,1.36025039 11.9476874,4.04654189 11.9476874,7.36025039 L11.9476874,15.3602504 C11.9476874,18.6739589 14.6339789,21.3602504 17.9476874,21.3602504 C21.2613959,21.3602504 23.9476874,18.6739589 23.9476874,15.3602504 L23.9476874,7.36025039 C23.9476874,4.04654189 21.2613959,1.36025039 17.9476874,1.36025039 Z" id="Rectangle" fill="#3A6CA6"></path>
                            <path d="M2.48545291,166.490804 L10.4187872,184.946204 C12.6460476,185.978176 14.8591889,186.490804 17.0657928,186.490804 C19.2679162,186.490804 21.4420596,185.980299 23.5971833,184.953126 L31.454712,166.490804 L2.48545291,166.490804 Z" id="Rectangle" fill="#3A6CA6"></path>
                            <path d="M7.77153932,23.7844067 L2.29862135,166.338051 C7.20096738,168.704075 12.0876935,169.883239 16.9671098,169.883239 C21.8465261,169.883239 26.7332523,168.704075 31.6355983,166.338051 L26.1626803,23.7844067 C23.1936405,22.5160661 20.1310153,21.883239 16.9671098,21.883239 C13.8032044,21.883239 10.7405791,22.5160661 7.77153919,23.7844083 Z" id="Rectangle" fill="#6097DF"></path>
                            <path d="M7.16152443,18.9143834 L7.16152443,27.9654693 C10.4945008,27.5198341 13.8279291,27.2969841 17.1615244,27.2969841 C20.4951197,27.2969841 23.8285481,27.5198341 27.1615244,27.9654693 L27.1615244,18.9143834 C23.8275981,18.3825943 20.4944235,18.1167628 17.1615244,18.1167628 C13.8286254,18.1167628 10.4954508,18.3825943 7.16152443,18.9143834 Z" id="Rectangle" fill="#6097DF"></path>
                        </g>
                        <g id="paint-brush" transform="translate(106.806486, 106.152345) rotate(-45.000000) translate(-106.806486, -106.152345) translate(61.306486, 1.652345)">
                            <path d="M49.4878399,78.0542832 C44.589017,78.0542832 40.5758707,81.9451591 40.4243434,86.8416381 L37.0996365,194.276782 C37.0956831,194.404533 37.0937061,194.532337 37.0937061,194.660149 C37.0937061,201.50524 42.6427488,207.054283 49.4878399,207.054283 C49.6156521,207.054283 49.7434565,207.052306 49.8712075,207.048353 C56.7130233,206.836625 62.0877714,201.118598 61.8760434,194.276782 L58.5513365,86.8416381 C58.3998092,81.9451591 54.3866629,78.0542832 49.4878399,78.0542832 Z" id="Rectangle" stroke="#0B3A7E" fill="#E1EDFB"></path>
                            <path d="M40.1910509,69.9870753 L40.1910509,83.3464303 C43.3230484,84.7958363 46.4409776,85.5171817 49.5523333,85.5171817 C52.6636889,85.5171817 55.7816182,84.7958363 58.9136156,83.3464303 L58.9136156,70.0075369 C55.8353186,71.3240837 52.7454711,71.9850252 49.649948,71.9850252 C46.5380161,71.9850252 43.3835103,71.3170947 40.1910509,69.987076 Z" id="Rectangle" stroke="#0B3A7E" fill="#9AC0EE"></path>
                            <g id="Group-11" transform="translate(45.555410, 45.207871) rotate(-195.000000) translate(-45.555410, -45.207871) translate(9.055410, 8.707871)" stroke="#063880">
                                <path d="M54.3707076,58.1991607 C45.6274958,66.9464498 33.934793,67.235589 23.306656,59.2087685 C13.4689064,51.7788821 10.4705094,40.1907559 13.0566334,27.4252062 C15.095287,17.3620645 20.663681,7.930552 24.4442492,7.92365345 C25.8691132,7.82432846 26.8318634,8.10114196 27.4136359,8.89204613 C27.851551,9.4873801 27.9373347,10.0071491 27.9928858,11.3297312 C28.0985512,13.8454555 28.4833782,15.0730341 30.1803515,16.6481255 C30.9129072,17.3280668 31.857907,17.9791896 33.0440993,18.599391 C35.204174,19.7287876 37.0576436,20.2001529 41.2798653,20.9110484 C42.7610182,21.1604301 43.3682027,21.2675165 44.1741024,21.4300606 C48.8550778,22.3741793 52.1597735,23.8866227 55.2889086,27.0172313 C63.6470764,35.3793349 63.2187809,49.346961 54.3707076,58.1991607 Z" id="Oval" fill="#3A6CA6" transform="translate(36.742385, 36.453645) scale(1, -1) rotate(45.000000) translate(-36.742385, -36.453645) "></path>
                                <path d="M36.3185369,54.3507909 C37.0258302,57.8065721 36.9697858,61.3588785 35.5463677,63.9512163 C33.0566345,68.4855341 30.6870673,69.3010372 26.0301926,65.7839676 C16.192443,58.3540812 13.194046,46.765955 15.7801701,34.0004053 C17.8188236,23.9372636 23.3872176,14.5057511 27.1677858,14.4988525 C28.5926499,14.3995276 29.5554,14.6763411 30.1371725,15.4672452 C30.5750877,16.0625792 30.6608713,16.5823482 30.7164224,17.9049303 C30.8220878,20.4206546 31.2069149,21.6482332 32.9038881,23.2233246 C33.6364439,23.9032659 34.5814436,24.5543887 35.767636,25.1745901 C37.9277107,26.3039867 39.7811803,26.775352 44.0034019,27.4862475 C45.4845548,27.7356292 46.0917393,27.8427156 46.8976391,28.0052597 C47.0279412,28.031672 47.0279412,28.031672 47.1584059,28.0586671 C51.5886284,28.9802199 55.6829044,38.1307638 53.6994568,43.4563106 C50.3887874,52.3454413 44.2636414,55.0995883 36.3185369,54.3507909 Z" id="Oval" fill="#9AC0EE" transform="translate(34.575378, 41.202911) scale(1, -1) rotate(45.000000) translate(-34.575378, -41.202911) "></path>
                            </g>
                        </g>
                    </g>
                    <polygon id="Rectangle" stroke="#0B3A7E" transform="translate(195.126932, 142.611309) rotate(23.000000) translate(-195.126932, -142.611309) " points="190.233612 137.734372 200.037216 137.717407 200.020251 147.488246 190.216647 147.505211"></polygon>
                </g>
            </g>
        </g>
    </g>
</svg>