<svg width="140px" height="140px" viewBox="0 0 187 136" version="1.1" xmlns="http://www.w3.org/2000/svg" xmlns:xlink="http://www.w3.org/1999/xlink">
    <g id="Welcome" stroke="none" stroke-width="1" fill="none" fill-rule="evenodd">
        <g id="About-me" transform="translate(-218.000000, -597.000000)">
            <g id="Group" transform="translate(0.000000, 119.000000)">
                <g id="digital-drawing-and-painting" transform="translate(129.585000, 439.000000)">
                    <g id="Icon_AboutMe_drawing" transform="translate(72.979984, 0.149375)">
                        <path d="M30.5168604,109.355835 C30.6832559,113.713219 31.1920753,117.461109 32.0414723,120.598126 C33.8316271,127.209578 36.4887019,132.215497 41.1108172,136.427145 C46.1551241,141.023493 44.9525614,148.440034 40.0443936,151.594617 C35.1158457,154.762299 29.2298116,153.392453 25.6013285,146.84478 C19.1806138,135.258467 16.0858058,121.991177 16.0858058,107.213594 C16.0858058,90.2951606 20.9384071,74.0613607 29.9688862,59.9626562 C34.9223919,52.2290673 44.9291133,45.7444412 53.9852403,44.5964077 C58.3846194,44.0387042 60.429059,44.279405 60.7483721,45.555125 C60.9814897,46.4864767 60.52046,47.1211643 58.4341378,49.4167031 C58.2845208,49.5813237 58.1711385,49.7068055 58.0620655,49.8287948 C56.7256184,51.3235043 56.1935037,52.2143498 56.374173,52.7205215 C56.4290766,52.8733258 56.4507935,52.9337613 56.4632587,52.9700396 C56.4775372,53.0115531 56.4775372,53.0115531 56.4938244,53.0721451 C56.5080376,53.1135016 56.5080376,53.1135016 56.4930772,53.3135383 C55.9667712,53.7778319 55.9667712,53.7778319 55.6853461,53.5790146 C55.6070214,53.5142026 55.3687097,53.1416353 55.3938971,53.1786115 C55.0704445,52.7037688 54.6841539,52.2771656 54.1992205,51.9367431 C52.6685075,50.8621846 50.7422599,51.0603859 48.2356958,53.2641111 L48.0556476,53.3655425 C37.2026739,56.7809572 34.9076971,61.2790849 34.9076971,75.9721593 C34.9076971,80.6228902 35.6382066,83.7729628 37.5619226,89.1771848 C37.6205235,89.3418102 37.8256705,89.9167836 37.8634419,90.022813 C37.9816231,90.3545631 38.0738674,90.614933 38.1623823,90.8671612 C39.6487186,95.1025634 40.2740553,97.8840764 40.2740553,101.434384 C40.2740553,107.784183 38.6205717,110.642743 34.4076971,110.642743 C32.6762117,110.642743 31.3660799,110.21096 30.5168604,109.355835 Z" id="Path" stroke="#0B3A7E" fill="#9AC0EE"></path>
                        <path d="M236.168874,82.3971703 C226.311565,78.7556462 215.653487,76.7667642 204.530881,76.7667642 C179.978398,76.7667642 157.689465,86.4581691 141.280809,102.22425" id="Path" stroke="#0B3A7E" transform="translate(188.724842, 89.495507) rotate(-270.000000) translate(-188.724842, -89.495507) "></path>
                        <g id="Group-10" transform="translate(0.072710, 0.000000)">
                            <g id="Group-9" transform="translate(111.452006, 101.168065) scale(-1, -1) rotate(-315.000000) translate(-111.452006, -101.168065) translate(93.952006, 9.668065)" stroke="#0B3A7E">
                                <path d="M9.90724523,181.667418 L19.8823647,181.667418 L19.8823647,177.758516 C19.8823647,174.820241 18.9553994,171.956855 17.2334447,169.576029 L16.1102252,168.023032 C16.0167109,167.893736 15.9031647,167.78019 15.773869,167.686675 C15.1026109,167.201182 14.1648784,167.351774 13.6793847,168.023032 L12.5561652,169.576029 C10.8342105,171.956855 9.90724523,174.820241 9.90724523,177.758516 L9.90724523,181.667418 Z" id="Polygon" fill="#6097DF" transform="translate(14.894805, 173.828397) rotate(-180.000000) translate(-14.894805, -173.828397) "></path>
                                <path d="M26.2206622,143.68458 L32.3104689,143.17065 C33.1359617,143.100985 33.7486813,142.375317 33.6790164,141.549824 C33.6785914,141.544854 33.6785914,141.544854 33.6781444,141.539886 L32.3350938,126.780918 L31.9939001,105.571465 C31.980575,104.743145 31.2982869,104.082461 30.469967,104.095786 C30.4359146,104.096334 30.4018909,104.098041 30.3679548,104.100905 L22.7328931,104.745242 C20.8067433,104.907793 19.3770643,106.60102 19.5396156,108.52717 C19.5405481,108.538084 19.5405481,108.538084 19.5415262,108.548994 L22.4406448,140.513127 C22.6144769,142.429706 24.303032,143.846413 26.2206622,143.68458 Z" id="Rectangle" fill="#3A6CA6"></path>
                                <path d="M14.8948049,0.5 C11.2743388,0.5 8.33937103,3.43496774 8.33937103,7.05543392 L8.33937103,15.718282 C8.33937103,19.3387482 11.2743388,22.2737159 14.8948049,22.2737159 C18.5152711,22.2737159 21.4502389,19.3387482 21.4502389,15.718282 L21.4502389,7.05543392 C21.4502389,3.43496774 18.5152711,0.5 14.8948049,0.5 Z" id="Rectangle" fill="#3A6CA6"></path>
                                <path d="M0.761108908,152.816322 L8.46670729,170.626936 C10.6460634,171.653676 12.8180474,172.165287 14.9866715,172.165287 C17.1530671,172.165287 19.2895558,171.65475 21.4008845,170.63045 L29.0314974,152.816322 L0.761108908,152.816322 Z" id="Rectangle" fill="#3A6CA6"></path>
                                <path d="M5.72885659,16.2823422 L0.51195391,152.827168 C5.31304389,155.199261 10.1058488,156.383239 14.8948049,156.383239 C19.6837611,156.383239 24.476566,155.199261 29.277656,152.827168 L24.0607533,16.2823422 C21.1058053,14.972631 18.0519086,14.3185297 14.8948049,14.3185297 C11.7377013,14.3185297 8.68380459,14.972631 5.72885656,16.2823427 Z" id="Rectangle" fill="#6097DF"></path>
                                <path d="M5.98755972,14.440238 L5.98755972,22.8978402 C8.95644027,22.4817698 11.9255767,22.2737159 14.8948049,22.2737159 C17.8640332,22.2737159 20.8331696,22.4817698 23.8020502,22.8978402 L23.8020502,14.440238 C20.8326443,13.9497253 17.8636507,13.704504 14.8948049,13.704504 C11.9259592,13.704504 8.95696564,13.9497253 5.98755972,14.440238 Z" id="Rectangle" fill="#6097DF"></path>
                            </g>
                            <g id="paint-brush" transform="translate(102.925777, 103.169453) rotate(-45.000000) translate(-102.925777, -103.169453) translate(57.925777, 3.169453)">
                                <path d="M49.2487683,77.5542832 C44.1028581,77.5542832 39.8846588,81.6362595 39.7157944,86.7793983 L36.4513495,186.205256 C36.4467525,186.345268 36.4444536,186.485346 36.4444536,186.625434 C36.4444536,193.697061 42.1771405,199.429748 49.2487683,199.429748 C49.3888556,199.429748 49.5289335,199.427449 49.6689453,199.422852 C56.7367645,199.190795 62.2782444,193.273076 62.046187,186.205256 L58.7817421,86.7793983 C58.6128777,81.6362595 54.3946784,77.5542832 49.2487683,77.5542832 Z" id="Rectangle" stroke="#0B3A7E" fill="#E1EDFB"></path>
                                <path d="M39.5017222,69.2283603 L39.5017222,83.664621 C42.77843,85.2342395 46.0474598,86.0171817 49.31295,86.0171817 C52.5784403,86.0171817 55.8474701,85.2342395 59.1241779,83.664621 L59.1241779,69.2399855 C55.8919482,70.7355516 52.6526878,71.4850252 49.4100931,71.4850252 C46.1588813,71.4850252 42.8551311,70.731583 39.5017222,69.22836 Z" id="Rectangle" stroke="#0B3A7E" fill="#9AC0EE"></path>
                                <g id="Group-11" transform="translate(45.165015, 45.253730) rotate(-195.000000) translate(-45.165015, -45.253730) translate(8.665015, 8.753730)" stroke="#063880">
                                    <path d="M53.8560586,57.851533 C45.3363625,66.3752216 33.950642,66.6292165 23.5208044,58.7413306 C13.8624829,51.4369275 10.8943117,40.0648479 13.4090152,27.5078499 C15.375123,17.6902269 20.8018614,8.47398775 24.2722905,8.47511619 C26.6249262,8.31678746 27.1816865,9.0712269 27.285144,11.3993229 C27.4033395,14.059065 27.8378727,15.4159211 29.7054903,17.1185978 C30.462542,17.8087896 31.4226873,18.4660486 32.6111473,19.089524 C34.8301828,20.2536474 36.7170461,20.7378066 40.9804695,21.4656673 C42.4839168,21.722339 43.0995108,21.8325625 43.9136103,21.9998026 C48.4602571,22.9338183 51.6637939,24.4129005 54.7001367,27.4506661 C62.8577446,35.6120968 62.4731047,49.2304488 53.8560586,57.851533 Z" id="Oval" fill="#3A6CA6" transform="translate(36.576982, 36.457884) scale(1, -1) rotate(45.000000) translate(-36.576982, -36.457884) "></path>
                                    <path d="M35.5531933,53.776108 C36.3910415,57.3253368 36.4362863,61.0614585 35.0039254,63.6781536 C32.6640688,67.9526991 30.6353893,68.6465495 26.2498626,65.3298599 C16.5915411,58.0254568 13.6233698,46.6533772 16.1380734,34.0963791 C18.1041812,24.2787562 23.5309196,15.062517 27.0013487,15.0636455 C29.3539844,14.9053167 29.9107447,15.6597562 30.0142022,17.9878522 C30.1323977,20.6475943 30.5669309,22.0044504 32.4345485,23.7071271 C33.1916001,24.3973188 34.1517455,25.0545779 35.3402055,25.6780533 C37.559241,26.8421767 39.4461043,27.3263359 43.7095277,28.0541966 C45.212975,28.3108683 45.828569,28.4210918 46.6426684,28.5883319 C46.7414816,28.6087091 46.7414816,28.6087091 46.8403421,28.629419 C50.9410527,29.491923 54.9002498,38.3024788 53.0338532,43.3419881 C49.7516717,52.2042973 43.6124339,54.7452619 35.5531933,53.776108 Z" id="Oval" fill="#9AC0EE" transform="translate(34.417525, 41.211831) scale(1, -1) rotate(45.000000) translate(-34.417525, -41.211831) "></path>
                                </g>
                            </g>
                        </g>
                        <path d="M189.807003,136.22949 L189.807003,144.993128 L198.57064,144.993128 L198.57064,136.22949 L189.807003,136.22949 Z" id="Rectangle" stroke="#0B3A7E" transform="translate(194.188821, 140.611309) rotate(23.000000) translate(-194.188821, -140.611309) "></path>
                    </g>
                </g>
            </g>
        </g>
    </g>
</svg>