<?xml version="1.0" encoding="UTF-8"?>
<svg width="34px" height="34px" viewBox="0 0 34 34" version="1.1" xmlns="http://www.w3.org/2000/svg" xmlns:xlink="http://www.w3.org/1999/xlink">
    <!-- Generator: Sketch 59.1 (86144) - https://sketch.com -->
    <title>Shape</title>
    <desc>Created with Sketch.</desc>
    <g id="Welcome" stroke="none" stroke-width="1" fill="none" fill-rule="evenodd" opacity="0.7">
        <g id="portfolio-desktop" transform="translate(-133.000000, -16.000000)" fill="#6097DF">
            <g id="nav-bar" transform="translate(0.000000, -1.000000)">
                <g id="social-media-copy" transform="translate(133.000000, 17.000000)">
                    <g id="linkedin">
                        <path d="M29.8460234,0 C32.1386992,0 34,1.86136719 34,4.15397656 L34,29.8460234 C34,32.1386328 32.1386328,34 29.8460234,34 L4.15397656,34 C1.86136719,34 0,32.1386328 0,29.8460234 L0,4.15397656 C0,1.86136719 1.86130078,0 4.15397656,0 L29.8460234,0 Z M11.05,28.05 L11.05,12.75 L5.95,12.75 L5.95,28.05 L11.05,28.05 Z M28.05,28.05 L28.05,19.4776953 C28.05,14.8860065 25.5769502,12.75 22.2791718,12.75 C19.6199986,12.75 18.4288354,14.1997665 17.7619043,15.2180004 L17.7619043,13.1015308 L12.75,13.1015308 C12.8164727,14.5042764 12.75,28.05 12.75,28.05 L17.7618374,28.05 L17.7618374,19.7017399 C17.7618374,19.2548428 17.7943055,18.8082106 17.9271172,18.4887997 C18.2888086,17.5963963 19.1140715,16.6719392 20.4987737,16.6719392 C22.3115731,16.6719392 23.0378953,18.0432934 23.0378953,20.0519461 L23.0378953,28.05 L28.05,28.05 L28.05,28.05 Z M8.94280255,5.95 C7.13265336,5.95 5.95,7.05357033 5.95,8.5 C5.95,9.91602738 7.09669574,11.05 8.87279094,11.05 L8.90691543,11.05 C10.7516826,11.05 11.9,9.91602738 11.9,8.5 C11.865805,7.05559715 10.7549259,5.9531383 8.94280255,5.95 L8.94280255,5.95 Z" id="Shape"></path>
                    </g>
                </g>
            </g>
        </g>
    </g>
</svg>