<?xml version="1.0" encoding="UTF-8"?>
<svg width="63px" height="50px" viewBox="0 0 63 50" version="1.1" xmlns="http://www.w3.org/2000/svg" xmlns:xlink="http://www.w3.org/1999/xlink">
    <!-- Generator: Sketch 59.1 (86144) - https://sketch.com -->
    <title>Ziv Pesso</title>
    <desc>Created with Sketch.</desc>
    <g id="Welcome" stroke="none" stroke-width="1" fill="none" fill-rule="evenodd">
        <g id="landing-screen-v2" transform="translate(-48.000000, -17.000000)">
            <g id="Group-3-Copy-2" transform="translate(79.000000, 42.183013) rotate(-30.000000) translate(-79.000000, -42.183013) translate(38.000000, 3.683013)">
                <g id="Group-4" transform="translate(41.166671, 38.628707) rotate(-330.000000) translate(-41.166671, -38.628707) translate(9.166671, 13.628707)">
                    <path d="M62.9444898,12.3537031 L47.5831252,21.6853888 C46.9571555,22.0656514 46.2387955,22.2667466 45.5063764,22.2667466 L27.3092879,22.2667466 C27.0331455,22.2667466 26.8092879,22.0428889 26.8092879,21.7667466 C26.8092879,21.5903921 26.9021915,21.42708 27.0537808,21.3369604 L62.9444898,-9.09494702e-13 L62.9444898,-9.09494702e-13 L62.9444898,12.3537031 Z M39.274559,27.7185221 L2.69306798,49.4900148 L2.69306798,49.4900148 L1,49.4900148 L0.974317985,37.198788 L17.8568233,27.3351273 C18.4691265,26.9773872 19.1655282,26.7888591 19.8746778,26.7888591 L39.0188449,26.7888591 C39.2949872,26.7888591 39.5188449,27.0127168 39.5188449,27.2888591 C39.5188449,27.4651276 39.4260311,27.6283734 39.274559,27.7185221 Z" id="Shape" fill-opacity="0.924024" fill="#2575D2"></path>
                    <rect id="Rectangle-Copy-24" fill="#5CA0F0" opacity="0.903180804" x="1" y="-2.72848411e-12" width="62.0408163" height="13.2173913" rx="1"></rect>
                    <rect id="Rectangle-Copy-25" fill="#5CA0F0" opacity="0.898228237" x="1" y="36.2726235" width="62.0408163" height="13.2173913" rx="1"></rect>
                </g>
            </g>
        </g>
    </g>
</svg>