<?xml version="1.0" encoding="UTF-8"?>
<svg width="261px" height="159px" viewBox="0 0 261 159" version="1.1" xmlns="http://www.w3.org/2000/svg" xmlns:xlink="http://www.w3.org/1999/xlink">
    <!-- Generator: Sketch 59.1 (86144) - https://sketch.com -->
    <title>Icon_AboutMe_team</title>
    <desc>Created with Sketch.</desc>
    <g id="Icon_AboutMe_team" stroke="none" stroke-width="1" fill="none" fill-rule="evenodd">
        <g id="team-production-copy-3">
            <g id="Group-3" transform="translate(104.000001, 0.000000)">
                <path d="M35.1959363,65.053249 L15.7616558,65.053249 C17.2635747,69.0218668 21.0962189,71.7585816 25.4787961,71.7585816 C29.8613733,71.7585816 33.6940174,69.0218668 35.1959363,65.053249 Z" id="Combined-Shape" stroke="#0B3A7E" stroke-width="2" fill="#AACAF0"></path>
                <g id="Group-2" opacity="0.462286086" transform="translate(9.661136, 23.240042)" stroke="#9AC0EE" stroke-width="1.60000002">
                    <path d="M8.61284745,4.30642373 C8.61284745,1.92805158 6.68479588,1.687539e-14 4.30642373,1.687539e-14 C1.92805158,1.687539e-14 0,1.92805158 0,4.30642373 C0,6.37401056 1.45709054,8.10127565 3.40043261,8.51738" id="Path"></path>
                    <path d="M27.2641367,8.39205212 C28.9734957,7.82125348 30.2056453,6.20773059 30.2056453,4.30642373 C30.2056453,1.92805158 28.2775938,5.77315973e-15 25.8992216,5.77315973e-15 C23.5208495,5.77315973e-15 21.5927979,1.92805158 21.5927979,4.30642373" id="Path"></path>
                    <path d="M2.78381597,8.38426437 C4.70613606,9.69429111 9.52727246,10.6232667 15.1706977,10.6232667 C20.3044571,10.6232667 24.757745,9.85450852 26.9673569,8.72946829 C27.5985081,8.40811296 28.0502179,8.14965259 28.3224861,7.95408718" id="Path"></path>
                    <line x1="8.61284745" y1="4.30642373" x2="9.5680949" y2="31.9905763" id="Path-4"></line>
                    <line x1="20.6375504" y1="4.30642373" x2="21.5927979" y2="31.9905763" id="Path-4-Copy" transform="translate(21.115174, 17.892566) scale(-1, 1) translate(-21.115174, -17.892566) "></line>
                </g>
                <rect id="Rectangle" fill="#AACAF0" x="12.4449518" y="53.5383992" width="25.5403704" height="12.1751912"></rect>
                <path d="M25.487223,-6.31088724e-30 C39.5634277,-6.31088724e-30 50.9744461,11.4110184 50.9744461,25.487223 C50.9744461,31.0720567 47.6320439,37.467785 40.9472394,44.674408 C39.0474833,46.7224567 37.991589,49.4126058 37.9910203,52.2060941 L37.9907315,53.6247031 L37.985,53.624 L37.9853222,64.3933331 C36.1650621,65.2735047 31.9768417,65.7135904 25.4206608,65.7135904 C18.86448,65.7135904 14.7206344,65.2735047 12.9891239,64.3933331 L12.989,53.624 L12.9837146,53.6247031 L12.9834258,52.2060855 C12.9828497,49.4125999 11.9269565,46.7224533 10.0272038,44.674405 C3.34240127,37.4677832 -3.55271368e-15,31.0720559 -3.55271368e-15,25.487223 C-3.55271368e-15,11.4110184 11.4110184,-6.31088724e-30 25.487223,-6.31088724e-30 Z" id="Combined-Shape" stroke="#0B3A7E" stroke-width="2"></path>
                <path d="M14.0236371,59.0775297 C16.8671295,59.6115056 20.3757092,59.8784935 24.549376,59.8784935 C28.7230429,59.8784935 32.9921453,59.6115056 37.3566834,59.0775297" id="Line" stroke="#0B3A7E" stroke-width="2" stroke-linecap="square"></path>
                <path d="M14.0236371,53.1379173 C16.8671295,53.6718932 20.3757092,53.9388811 24.549376,53.9388811 C28.7230429,53.9388811 32.9921453,53.6718932 37.3566834,53.1379173" id="Line-Copy" stroke="#0B3A7E" stroke-width="2" stroke-linecap="square"></path>
            </g>
            <g id="woman" transform="translate(156.000000, 13.000000)">
                <path d="M52.8977832,110.760004 C84.9008635,110.760004 103.479324,97.8789692 103.479324,70.4417633 C103.479324,54.36398 98.9531302,37.1564595 90.886482,24.1755679 C81.7127711,9.41318508 68.7370105,1 52.8977832,1 C37.0585558,1 24.0827953,9.41318508 14.9090843,24.1755679 C6.84243611,37.1564595 2.31624281,54.36398 2.31624281,70.4417633 C2.31624281,97.8789692 20.8947028,110.760004 52.8977832,110.760004 Z" id="Oval-Copy-13" stroke="#0B3A7E" stroke-width="2" fill="#38659A"></path>
                <path d="M1.03605194,122.729648 C8.32760324,137.398137 25.3765598,144.777845 52.3562447,144.777845 C79.3434031,144.777845 95.7761517,137.398644 101.86517,122.745759 C98.5269163,93.4242278 82.1208874,78.8906552 52.3562447,78.8906552 C22.5962548,78.8906552 5.57930498,93.4266312 1.03605194,122.729648 Z" id="Path-Copy-2" stroke="#0B3A7E" stroke-width="2" fill="#6097DF"></path>
                <path d="M52.6878278,125.740342 L75.545918,103.90783 C88.5465735,83.033932 82.5164236,73.0400027 56.8637957,73.0400027 C43.7544065,73.0400027 34.3243195,73.8409846 28.6081558,75.427932 C23.2494816,76.9156316 21.5360893,78.8665201 22.8195006,81.5282751 C27.4393216,93.7242412 32.0800152,103.224295 36.7324199,110.022407 C41.2223237,116.583072 46.5398885,121.82013 52.6878278,125.740342 Z" id="Path-Copy-2" stroke="#0B3A7E" stroke-width="1.76000006" fill="#FFFFFF"></path>
                <path d="M27.3488231,92.3107214 C30.5030491,99.4458122 33.665023,105.327839 36.8314495,109.954634 C41.2997517,116.483735 46.5883893,121.69832 52.7004199,125.606007 L69.0191546,111.255146 L74.2520587,96.4791485 C69.4812839,100.669591 61.8556059,102.74175 51.4437652,102.74175 C41.4064707,102.74175 33.3573744,99.249812 27.3488231,92.3107214 Z" id="Path-Copy-2" stroke="#0B3A7E" stroke-width="2" fill="#3A6CA6"></path>
                <path d="M52.8000019,125.592844 C78.091857,109.263909 90.7377845,95.9681912 90.7377845,85.7056914 C90.7377845,70.3119418 73.7962389,57.832842 52.8977832,57.832842 C31.9993275,57.832842 15.0577818,70.3119418 15.0577818,85.7056914 C15.0577818,95.9681912 27.6385218,109.263909 52.8000019,125.592844 Z M75.4282059,82.7103726 C73.3991572,111.188844 51.9853037,125.592844 52.8977832,125.592844 C53.8102626,125.592844 31.67759,112.820057 29.6518761,84.3883898 C31.6311127,80.0565668 38.8950757,77.8906552 51.4437652,77.8906552 C63.9924547,77.8906552 71.9872683,79.4972277 75.4282059,82.7103726 Z" id="Path-Copy-4" stroke="#0B3A7E" stroke-width="2" fill="#6599DE"></path>
                <circle id="Oval-Copy-6" stroke="#0B3A7E" stroke-width="2" fill="#FFFFFF" cx="52.8977832" cy="41.5055557" r="40.2048169"></circle>
                <path d="M11.6929663,47.9073173 C35.4648824,42.4734618 57.5421178,25.9007447 68.072608,4.54716581 C52.4686334,-1.98861996 38.7272956,-0.425631095 26.8485947,9.23613239 C14.9698938,18.8978959 9.91801769,31.7882908 11.6929663,47.9073173 Z" id="Path" stroke="#0B3A7E" stroke-width="2" fill="#38659A"></path>
                <path d="M61.0828273,14.43981 C64.6930767,30.2535145 77.4010378,42.6029291 93.4077747,45.6891179 C93.8709916,34.2409674 92.1841303,25.3248142 88.3471907,18.9406583 C84.5102512,12.5565024 77.752057,7.50631753 68.072608,3.79010376 L61.0828273,14.43981 Z" id="Path" stroke="#2A5180" stroke-width="2" fill="#38659A"></path>
                <path d="M27.280001,54.0664362 C28.7828286,52.0185934 31.4793931,50.8430942 35.3696945,50.5399387 C39.2599959,50.2367831 42.380899,51.4122823 44.732404,54.0664362" id="Line-4" stroke="#0B3A7E" stroke-width="2.6400001" stroke-linecap="round"></path>
                <path d="M59.4068772,54.0664362 C60.9097047,52.0185934 63.6062692,50.8430942 67.4965706,50.5399387 C71.386872,50.2367831 74.5077752,51.4122823 76.8592802,54.0664362" id="Line-4-Copy" stroke="#0B3A7E" stroke-width="2.6400001" stroke-linecap="round"></path>
            </g>
            <g id="Group-12" transform="translate(0.000000, 15.000000)">
                <path d="M75.2014717,79.8029443 C74.541354,89.0679475 64.5656085,96.4242989 52.3562447,96.4242989 C40.1468808,96.4242989 30.1711353,89.0679475 29.5110177,79.8029443" id="Path" stroke="#8A96A4" stroke-width="1.76000006"></path>
                <path d="M1.03605194,120.69259 C8.32760324,135.361078 25.3765598,142.740787 52.3562447,142.740787 C79.3434031,142.740787 95.7761517,135.361585 101.86517,120.7087 C98.5269163,91.3871691 82.1208874,76.8535965 52.3562447,76.8535965 C22.5962548,76.8535965 5.57930498,91.3895725 1.03605194,120.69259 Z" id="Path" stroke="#0B3A7E" stroke-width="2" fill="#3A6CA6"></path>
                <path d="M52.3547196,122.506896 C76.9365573,106.479987 89.1959043,93.4534012 89.1959043,83.6686327 C89.1959043,68.8292619 72.6964198,56.6757833 52.235903,56.6757833 C31.7753861,56.6757833 15.2759016,68.8292619 15.2759016,83.6686327 C15.2759016,93.4518393 27.614676,106.479398 52.3547196,122.506896 Z" id="Oval-Copy-7" stroke="#0B3A7E" stroke-width="1.76000006" fill="#2A5180"></path>
                <path d="M52.354511,122.363768 C76.8592939,106.378148 89.0759044,93.3885401 89.0759044,83.6686327 C89.0759044,68.904859 72.6367009,56.7957833 52.235903,56.7957833 C31.835105,56.7957833 15.3959016,68.904859 15.3959016,83.6686327 C15.3959016,93.3867657 27.6918289,106.377477 52.354511,122.363768 Z" id="Oval-Copy-7" stroke="#0B3A7E" stroke-width="2" fill="#3A6CA6"></path>
                <path d="M52.3532293,122.320317 C68.1151383,106.668638 75.9959038,95.4617331 75.9959038,88.9461669 C75.9959038,79.0959513 65.4019845,71.002944 52.235903,71.002944 C39.0698215,71.002944 28.4759021,79.0959513 28.4759021,88.9461669 C28.4759021,95.4595836 36.4352048,106.667701 52.3532238,122.320323 Z" id="Oval-Copy-8" stroke="#0B3A7E" stroke-width="1.76000006" fill="#FFFFFF"></path>
                <path d="M72.4114075,98.4386373 C72.345999,98.5478193 72.2796748,98.6575254 72.2124352,98.7677554 C74.4859509,96.4392513 76.2332554,93.4167332 77.550759,89.6059771 L75.6514626,88.9800124 C74.5820519,92.3903939 73.5019688,95.5433408 72.4114075,98.4386373 Z M52.3529044,122.151509 C52.1215012,122.381462 51.888396,122.612377 51.6535891,122.844256 L53.0548621,124.271281 L54.6053275,122.75739 L52.7145284,122.506778 C52.5935346,122.388101 52.4729927,122.269678 52.3529044,122.151509 Z M35.2790779,103.149765 C35.2616758,103.126192 35.2443074,103.102637 35.2269726,103.079101 L35.318062,103.228619 C35.3050681,103.202361 35.2920734,103.176076 35.2790779,103.149765 Z M33.9268982,100.323209 C32.9139477,98.1394171 31.8965141,95.7974007 30.8751187,93.2979859 L30.8285772,93.1839767 L29.9027501,93.5619239 L29.0115532,94.0155405 L29.1237148,94.2358985 C30.4219404,96.7389511 31.9988847,98.7463589 33.9268959,100.323207 Z M27.1765562,89.3756898 C27.7054367,90.7605667 28.2333443,92.1042112 28.7602887,93.4066337 L28.9762872,93.9383101 L29.9027501,93.5619239 L30.7944007,93.1091998 L30.7400929,93.0022392 C30.159946,91.8388352 29.6427532,90.5463263 29.1902609,89.1226814 L29.0656249,88.7219154 L28.1107501,89.0189239 L27.1765562,89.3756898 Z" id="Combined-Shape" stroke="#0B3A7E" stroke-width="2" fill="#6599DE"></path>
                <circle id="Oval" stroke="#0B3A7E" stroke-width="2" fill="#FFFFFF" cx="53.4400016" cy="44.4400016" r="43.4400016"></circle>
                <path d="M16.2486294,22.2122681 C34.2726449,36.3246071 55.6233374,32.1104805 80.3007068,9.56988814 C67.9028991,1.25918808 55.8082769,-1.45532859 44.0168402,1.42633813 C26.3296851,5.7488382 15.0792291,21.2966578 16.2486294,22.2122681 Z" id="Path" stroke="#0B3A7E" stroke-width="2" fill="#9AC0EE"></path>
                <path d="M72.632856,16.9035996 C73.8083536,16.9035996 77.7701603,26.2386808 84.2625135,30.3626986 C88.590749,33.1120438 92.5132747,35.4026216 96.0300906,37.2344319 C95.5738374,30.0646996 93.7574445,23.8966699 90.5809117,18.730343 C87.404379,13.564016 83.977644,10.4300091 80.3007068,9.3283223 C74.4051412,14.3785071 71.8491909,16.9035996 72.632856,16.9035996 Z" id="Path-Copy-3" stroke="#0B3A7E" stroke-width="2" fill="#9AC0EE"></path>
                <path d="M60.7732301,42.32 C59.5582036,42.32 58.57323,43.3049736 58.57323,44.5200001 L58.57323,52.9599997 C58.57323,56.1190686 61.1341613,58.68 64.2932302,58.68 L83.2132297,58.68 C86.3722986,58.68 88.9332299,56.1190686 88.9332299,52.9599997 L88.9332299,44.5200001 C88.9332299,43.3049736 87.9482563,42.32 86.7332298,42.32 L60.7732301,42.32 Z" id="Rectangle-Copy" stroke="#0B3A7E" stroke-width="2.6400001"></path>
                <path d="M18.7732301,42.32 C17.5582036,42.32 16.57323,43.3049736 16.57323,44.5200001 L16.57323,52.9599997 C16.57323,56.1190686 19.1341613,58.68 22.2932302,58.68 L41.2132297,58.68 C44.3722986,58.68 46.9332299,56.1190686 46.9332299,52.9599997 L46.9332299,44.5200001 C46.9332299,43.3049736 45.9482563,42.32 44.7332298,42.32 L18.7732301,42.32 Z" id="Rectangle-Copy-4" stroke="#0B3A7E" stroke-width="2.6400001"></path>
                <line x1="11.6945865" y1="49" x2="15.25323" y2="50.8698456" id="Path" stroke="#0B3A7E" stroke-width="2.6400001" stroke-linecap="square" transform="translate(13.473908, 49.934923) scale(-1, 1) translate(-13.473908, -49.934923) "></line>
                <line x1="91.25323" y1="49" x2="94.8118734" y2="50.8698456" id="Path-Copy-10" stroke="#0B3A7E" stroke-width="2.6400001" stroke-linecap="square"></line>
                <path d="M47,46.2562822 C50.5600493,44.6257328 54.6754742,44.7410128 58.1386639,46.5682947 L58.2922806,46.6493475 L58.2922806,46.6493475" id="Path" stroke="#0B3A7E" stroke-width="2.6400001" stroke-linecap="square"></path>
            </g>
        </g>
    </g>
</svg>