<svg width="140px" height="140px" viewBox="0 0 212 186" version="1.1" xmlns="http://www.w3.org/2000/svg" xmlns:xlink="http://www.w3.org/1999/xlink">
    <g id="Welcome" stroke="none" stroke-width="1" fill="none" fill-rule="evenodd">
        <g id="About-me" transform="translate(-1005.000000, -555.000000)">
            <g id="Group" transform="translate(0.000000, 119.000000)">
                <g id="Group-3-Copy-2" transform="translate(929.746770, 434.000000)">
                    <g id="Icon_AboutMe_team" transform="translate(74.163003, 3.275516)">
                        <g id="Group-3" transform="translate(82.118623, 0.000000)">
                            <path d="M34.4569838,62.0352421 L14.4974858,62.0352421 C15.8267924,66.3585182 19.8464428,69.3984708 24.4772348,69.3984708 C29.1080267,69.3984708 33.1276771,66.3585182 34.4569838,62.0352421 Z" id="Combined-Shape" stroke="#0B3A7E" fill="#AACAF0"></path>
                            <path d="M24.4853305,0 C38.0082051,0 48.970661,10.9624559 48.970661,24.4853305 C48.970661,29.8506265 45.7596473,35.9949413 39.3376198,42.9182749 C37.5125423,44.8858156 36.4981548,47.470216 36.4976085,50.1538934 L36.497331,51.5167374 L24.2239401,57.2899409 L12.4733299,51.5167374 L12.4730525,50.1538852 C12.4724991,47.4702103 11.4581126,44.8858123 9.63303843,42.9182719 C3.21101281,35.9949396 0,29.8506258 0,24.4853305 C0,10.9624559 10.9624559,0 24.4853305,0 Z" id="Path" stroke="#0B3A7E" fill="#FFFFFF"></path>
                            <g id="Group-2" opacity="0.462286086" transform="translate(9.281360, 22.326486)" stroke="#6A7CF2" stroke-width="2">
                                <path d="M8.27427986,4.13713993 C8.27427986,1.85226064 6.42201922,0 4.13713993,0 C1.85226064,0 0,1.85226064 0,4.13713993 C0,6.12345075 1.3998129,7.78281774 3.26676296,8.1825652" id="Path"></path>
                                <path d="M26.1923943,8.0621639 C27.8345591,7.51380313 29.0182735,5.96370718 29.0182735,4.13713993 C29.0182735,1.85226064 27.1660128,0 24.8811335,0 C22.5962543,0 20.7439936,1.85226064 20.7439936,4.13713993" id="Path"></path>
                                <path d="M2.67438528,8.05468229 C4.52113974,9.3132124 9.15275919,10.2056704 14.5743437,10.2056704 C19.506297,10.2056704 23.7845279,9.46713172 25.9072808,8.38631638 C26.5136218,8.0775934 26.947575,7.829293 27.2091405,7.64141519" id="Path"></path>
                                <line x1="8.27427986" y1="4.13713993" x2="9.19197691" y2="30.7330395" id="Path-4"></line>
                                <line x1="19.8262966" y1="4.13713993" x2="20.7439936" y2="30.7330395" id="Path-4-Copy" transform="translate(20.285145, 17.189216) scale(-1, 1) translate(-20.285145, -17.189216) "></line>
                            </g>
                            <rect id="Rectangle" fill="#AACAF0" x="11.9557457" y="51.4338261" width="24.5363886" height="11.6965893"></rect>
                            <path d="M36.4921344,50.688104 L36.4921344,61.8620569 C34.743428,62.7076293 30.7198448,63.1304154 24.4213848,63.1304154 C18.1229248,63.1304154 14.1419721,62.7076293 12.4785266,61.8620569 L12.4785266,50.688104" id="Combined-Shape" stroke="#0B3A7E"></path>
                            <path d="M13.4723735,56.7552156 C16.2040894,57.2682011 19.5747482,57.5246939 23.5843498,57.5246939 C27.5939515,57.5246939 31.6952373,57.2682011 35.8882071,56.7552156" id="Line" stroke="#0B3A7E" stroke-linecap="square"></path>
                            <path d="M13.4723735,51.049087 C16.2040894,51.5620725 19.5747482,51.8185652 23.5843498,51.8185652 C27.5939515,51.8185652 31.6952373,51.5620725 35.8882071,51.049087" id="Line-Copy" stroke="#0B3A7E" stroke-linecap="square"></path>
                        </g>
                        <g id="woman" transform="translate(121.559768, 57.289941)">
                            <path d="M46.1985376,97.106146 C74.3317995,97.106146 90.747528,85.7246014 90.747528,61.5206584 C90.747528,47.4118793 86.7765905,32.3153102 79.6932663,20.9167886 C71.6175837,7.92135876 60.1715293,0.5 46.1985376,0.5 C32.2255459,0.5 20.7794914,7.92135876 12.7038088,20.9167886 C5.62048465,32.3153102 1.64954709,47.4118793 1.64954709,61.5206584 C1.64954709,85.7246014 18.0652756,97.106146 46.1985376,97.106146 Z" id="Oval-Copy-13" stroke="#0B3A7E" fill="#38659A"></path>
                            <path d="M45.7255823,68.5261846 C27.526991,68.5261846 15.4185028,73.1442709 8.3314282,81.573511 C2.75582737,88.205031 0.5,96.7858636 0.5,107.325417 C0.5,123.487732 8.57395708,126.815794 45.7255823,126.815794 C78.3919259,126.815794 89.3573278,121.033679 89.3573278,107.325417 C89.3573278,98.5521667 87.3352484,90.1773324 82.302234,83.3098342 C75.3924034,73.8814389 63.5463458,68.5261846 45.7255823,68.5261846 Z" id="Path-Copy-2" stroke="#0B3A7E" fill="#8BB5ED"></path>
                            <path d="M46.04873,110.155258 L66.1883948,90.9192036 C77.6801953,72.4858506 72.2837262,63.5212911 49.662274,63.5212911 C38.1907141,63.5212911 29.9344768,64.2225674 24.9132332,65.616588 C20.0951085,66.9542178 18.4729767,68.801196 19.6783841,71.2982487 C23.7200772,81.9680022 27.7819564,90.2831539 31.8588165,96.240278 C35.8433556,102.062502 40.5727957,106.699506 46.04873,110.155258 Z" id="Path-Copy-2" stroke="#0B3A7E" fill="#FFFFFF"></path>
                            <path d="M22.4041582,78.1299338 C25.5450847,85.5835579 28.6974466,91.6208717 31.8588165,96.240278 C35.8466813,102.067362 40.5806912,106.707246 46.0624432,110.163909 L60.597722,97.3814374 L65.7393109,82.8632835 C61.7828918,87.2024404 54.8307446,89.3566547 44.9286639,89.3566547 C35.2513038,89.3566547 27.7309571,85.6039954 22.4041582,78.1299338 Z" id="Path-Copy-2" stroke="#0B3A7E" fill="#3A6CA6"></path>
                            <path d="M46.1131399,109.687125 C68.2019052,95.4261691 79.2462878,83.814289 79.2462878,74.8514847 C79.2462878,61.4072781 64.450306,50.5085953 46.1985376,50.5085953 C27.9467691,50.5085953 13.1507873,61.4072781 13.1507873,74.8514847 C13.1507873,83.814289 24.1382382,95.4261691 46.1131399,109.687125 Z M65.8755924,72.2355083 C64.1035129,97.1073203 45.4016192,109.687125 46.1985376,109.687125 C46.995456,109.687125 27.6657781,98.5319482 25.896611,73.7010129 C27.6251869,69.917794 33.9692046,68.0261846 44.9286639,68.0261846 C55.8881232,68.0261846 62.8704327,69.4292925 65.8755924,72.2355083 Z" id="Path-Copy-4" stroke="#0B3A7E" fill="#8BB5ED"></path>
                            <circle id="Oval-Copy-6" stroke="#0B3A7E" fill="#FFFFFF" cx="46.1985376" cy="36.24908" r="35.4864283"></circle>
                            <path d="M10.2121093,41.8400898 C30.9734285,37.0944055 50.2546899,22.620542 59.451545,3.97128949 C45.8237375,-1.73677096 33.822673,-0.371726998 23.4483515,8.06642138 C13.07403,16.5045698 8.66194924,27.7624592 10.2121093,41.8400898 Z" id="Path" stroke="#0B3A7E" fill="#38659A"></path>
                            <path d="M53.3469859,12.6110787 C56.5000148,26.4220548 67.5985748,37.2074764 81.5781367,39.9028145 C81.9826895,29.9045163 80.5094609,22.1175503 77.158451,16.5419165 C73.8074411,10.9662827 67.9051391,6.55567912 59.451545,3.31010565 L53.3469859,12.6110787 Z" id="Path" stroke="#2A5180" fill="#38659A"></path>
                            <path d="M22.5512204,47.2191864 C23.8637223,45.4306929 26.21878,44.404065 29.6163938,44.1393026 C33.0140075,43.8745402 35.7396636,44.9011681 37.7933619,47.2191864" id="Line-4" stroke="#0B3A7E" stroke-width="1.5" stroke-linecap="round"></path>
                            <path d="M50.6093848,47.2191864 C51.9218867,45.4306929 54.2769444,44.404065 57.6745582,44.1393026 C61.0721719,43.8745402 63.797828,44.9011681 65.8515263,47.2191864" id="Line-4-Copy" stroke="#0B3A7E" stroke-width="1.5" stroke-linecap="round"></path>
                        </g>
                        <g id="man" transform="translate(0.602265, 58.245528)">
                            <path d="M66.3492095,70.5197798 C65.7726925,78.6114156 57.0603264,85.0361211 46.3972188,85.0361211 C35.7341112,85.0361211 27.0217451,78.6114156 26.4452281,70.5197798" id="Path" stroke="#8A96A4"></path>
                            <path d="M46.3972188,67.5705976 C28.1986275,67.5705976 16.0901394,72.1886839 9.00306472,80.617924 C3.42746389,87.249444 1.17163652,95.8302766 1.17163652,106.36983 C1.17163652,122.532145 9.2455936,125.860207 46.3972188,125.860207 C79.0635624,125.860207 90.0289643,120.078092 90.0289643,106.36983 C90.0289643,97.5965797 88.0068849,89.2217454 82.9738705,82.3542472 C76.0640399,72.9258519 64.2179823,67.5705976 46.3972188,67.5705976 Z" id="Path" stroke="#0B3A7E" fill="#3A6CA6"></path>
                            <path d="M46.3963532,108.135703 C68.0374039,94.0462206 78.839868,82.5869021 78.839868,73.8958977 C78.839868,60.7666791 64.2950574,50.0530083 46.2921178,50.0530083 C28.2891782,50.0530083 13.7443676,60.7666791 13.7443676,73.8958977 C13.7443676,82.586014 24.616446,94.0458877 46.3963532,108.135703 Z" id="Oval-Copy-7" stroke="#0B3A7E" fill="#2A5180"></path>
                            <path d="M46.3963532,108.135703 C68.0374039,94.0462206 78.839868,82.5869021 78.839868,73.8958977 C78.839868,60.7666791 64.2950574,50.0530083 46.2921178,50.0530083 C28.2891782,50.0530083 13.7443676,60.7666791 13.7443676,73.8958977 C13.7443676,82.586014 24.616446,94.0458877 46.3963532,108.135703 Z" id="Oval-Copy-7" stroke="#0B3A7E" fill="#3A6CA6"></path>
                            <path d="M46.3955041,108.029906 C60.3396293,94.2105038 67.3115831,84.3215468 67.3115831,78.505058 C67.3115831,69.7358327 57.9257316,62.5657041 46.2921178,62.5657041 C34.658504,62.5657041 25.2726525,69.7358327 25.2726525,78.505058 C25.2726525,84.3203218 32.3137156,94.2099726 46.3955041,108.029906 Z" id="Oval-Copy-8" stroke="#0B3A7E" fill="#FFFFFF"></path>
                            <path d="M46.3955299,108.029883 C46.279466,108.144907 46.1629197,108.260204 46.045891,108.375773 L46.3050936,108.638249 L46.3046798,108.640947 L46.3062118,108.639381 L46.3972188,108.731538 L46.7516944,109.084167 L47.5307808,108.301 L46.5375149,108.169124 C46.4901075,108.122667 46.4427791,108.076253 46.3955299,108.029883 Z M29.1840594,86.8882871 C28.5584365,85.4834024 27.9256378,84.0000645 27.290962,82.4469753 L27.2479735,82.3420459 L26.7852975,82.5316006 L26.3399078,82.7588185 L26.4671598,83.0082563 C27.2481681,84.5032034 28.1463126,85.7901556 29.1840594,86.8882871 Z M64.9366632,85.0937237 C66.1930298,83.3924475 67.2186319,81.3584988 68.0481101,78.9593108 L67.0984618,78.6463284 C66.3834232,80.9266073 65.6628092,83.0757551 64.9366632,85.0937237 Z M24.7552006,78.7469836 C25.2162399,79.9542178 25.6763968,81.1254216 26.1356763,82.2606002 L26.3220089,82.7196529 L26.7852975,82.5316006 L27.2296696,82.3023987 L27.1967408,82.2385571 C26.6808394,81.2074694 26.2215759,80.0640579 25.8201609,78.8064742 L25.6996447,78.4198065 L25.2222975,78.5686006 L24.7552006,78.7469836 Z" id="Combined-Shape" stroke="#0B3A7E" fill="#8BB5ED"></path>
                            <circle id="Oval" stroke="#0B3A7E" fill="#E1EDFB" cx="47.4449463" cy="39.6353809" r="38.3118927"></circle>
                            <circle id="Oval" stroke="#0B3A7E" fill="#FFFFFF" cx="47.4449463" cy="39.6353809" r="38.3118927"></circle>
                            <path d="M14.8624565,20.2226811 C30.6038185,32.5477614 49.2505502,28.8673333 70.8026514,9.18139679 C59.9749654,1.92320626 49.412068,-0.447530145 39.1139591,2.06918757 C23.6667958,5.84426415 13.841155,19.4230284 14.8624565,20.2226811 Z" id="Path" stroke="#0B3A7E" fill="#9AC0EE"></path>
                            <path d="M64.1058964,15.5863295 C65.132523,15.5863295 68.5925863,23.7391683 74.2627147,27.3408995 C78.0428003,29.7420535 81.4685573,31.7425408 84.5399857,33.3423613 C84.1415147,27.0806406 82.5551591,21.6937617 79.7809187,17.1817248 C77.0066783,12.6696879 74.0139226,9.93258767 70.8026514,8.97042408 C65.6537304,13.3810277 63.4214787,15.5863295 64.1058964,15.5863295 Z" id="Path-Copy-3" stroke="#0B3A7E" fill="#9AC0EE"></path>
                            <g id="Group-5" transform="translate(14.323499, 36.943152)" stroke="#0B3A7E" stroke-width="1.5">
                                <path d="M38.705624,0.75 C38.0152681,0.75 37.455624,1.30964406 37.455624,2 L37.455624,12.7928684 C37.455624,14.5877939 38.9106986,16.0428684 40.705624,16.0428684 L61.0354086,16.0428684 C62.830334,16.0428684 64.2854086,14.5877939 64.2854086,12.7928684 L64.2854086,2 C64.2854086,1.30964406 63.7257645,0.75 63.0354086,0.75 L38.705624,0.75 Z" id="Rectangle-Copy"></path>
                                <path d="M2,0.75 C1.30964406,0.75 0.75,1.30964406 0.75,2 L0.75,12.7928684 C0.75,14.5877939 2.20507456,16.0428684 4,16.0428684 L24.3297846,16.0428684 C26.12471,16.0428684 27.5797846,14.5877939 27.5797846,12.7928684 L27.5797846,2 C27.5797846,1.30964406 27.0201405,0.75 26.3297846,0.75 L2,0.75 Z" id="Rectangle-Copy-2"></path>
                            </g>
                        </g>
                        <path d="M80.3324249,99.8022896 L85.5104744,101.14165" id="Shape" stroke="#0B3A7E" stroke-width="1.5" stroke-linecap="square"></path>
                        <path d="M10.729366,100.465375 L14.9257646,101.14165" id="Shape" stroke="#0B3A7E" stroke-width="1.5" stroke-linecap="square" transform="translate(12.827565, 100.803513) scale(-1, 1) translate(-12.827565, -100.803513) "></path>
                        <path d="M42.4791764,101.731818 C45.154688,100.065164 49.568855,100.065164 52.207183,101.66103 L52.3413449,101.731818" id="Path" stroke="#0B3A7E" stroke-width="1.5" stroke-linecap="square"></path>
                        <path d="M46.5354176,166.977066 C46.6029127,173.918983 46.6029127,179.811218 46.5354176,184.653769" id="Path-5" stroke="#0B3A7E"></path>
                        <g id="light-lines" transform="translate(52.716430, 0.659039)" stroke="#0B3A7E" stroke-linecap="round">
                            <line x1="26.8993316" y1="38.4276165" x2="13.0653896" y2="47.6502445" id="Line-3"></line>
                            <line x1="94.5319367" y1="38.4276165" x2="80.6979947" y2="47.6502445" id="Line-3-Copy-2" transform="translate(87.614966, 43.038931) scale(-1, 1) translate(-87.614966, -43.038931) "></line>
                            <line x1="24.5936746" y1="0.768552331" x2="10.7597326" y2="9.9911803" id="Line-3-Copy" transform="translate(17.676704, 5.379866) scale(1, -1) translate(-17.676704, -5.379866) "></line>
                            <line x1="96.8375937" y1="0.768552331" x2="83.0036517" y2="9.9911803" id="Line-3-Copy-3" transform="translate(89.920623, 5.379866) scale(-1, -1) translate(-89.920623, -5.379866) "></line>
                            <line x1="20.7509129" y1="24.5936746" x2="0.768552331" y2="24.5936746" id="Line-5"></line>
                            <line x1="107.597326" y1="24.5936746" x2="87.6149657" y2="24.5936746" id="Line-5-Copy" transform="translate(97.606146, 24.593675) scale(-1, 1) translate(-97.606146, -24.593675) "></line>
                        </g>
                    </g>
                </g>
            </g>
        </g>
    </g>
</svg>