<svg width="261" height="159" xmlns="http://www.w3.org/2000/svg"><g fill="none" fill-rule="evenodd"><path d="M139.196 65.053h-19.434a10.396 10.396 0 009.717 6.706c4.382 0 8.215-2.737 9.717-6.706z" stroke="#0B3A7E" stroke-width="2" fill="#AACAF0"/><g opacity=".462" stroke="#9AC0EE" stroke-width="1.6"><path d="M122.274 27.546a4.306 4.306 0 10-5.212 4.211M140.925 31.632a4.308 4.308 0 00-1.365-8.392 4.306 4.306 0 00-4.306 4.306"/><path d="M116.445 31.624c1.922 1.31 6.743 2.24 12.387 2.24 5.134 0 9.587-.77 11.796-1.894.632-.322 1.083-.58 1.356-.776M122.274 27.546l.955 27.685M135.253 27.546l-.955 27.685"/></g><path fill="#AACAF0" d="M116.445 53.538h25.54v12.175h-25.54z"/><path d="M129.487 0c14.076 0 25.487 11.411 25.487 25.487 0 5.585-3.342 11.98-10.027 19.187a11.078 11.078 0 00-2.956 7.532v1.419l-.006-.001v10.77c-1.82.88-6.008 1.32-12.564 1.32-6.557 0-10.7-.44-12.432-1.32v-10.77h-.005v-1.418c-.001-2.793-1.057-5.484-2.957-7.532C107.342 37.468 104 31.072 104 25.487 104 11.411 115.411 0 129.487 0z" stroke="#0B3A7E" stroke-width="2"/><path d="M118.024 59.078c2.843.534 6.352.8 10.525.8 4.174 0 8.443-.266 12.808-.8M118.024 53.138c2.843.534 6.352.8 10.525.8 4.174 0 8.443-.266 12.808-.8" stroke="#0B3A7E" stroke-width="2" stroke-linecap="square"/><g transform="translate(156 13)"><path d="M52.898 110.76c32.003 0 50.581-12.881 50.581-40.318 0-16.078-4.526-33.286-12.593-46.266C81.713 9.413 68.737 1 52.898 1c-15.84 0-28.815 8.413-37.989 23.176C6.842 37.156 2.316 54.364 2.316 70.442c0 27.437 18.579 40.318 50.582 40.318z" stroke="#0B3A7E" stroke-width="2" fill="#38659A"/><path d="M1.036 122.73c7.292 14.668 24.34 22.048 51.32 22.048 26.987 0 43.42-7.38 49.51-22.032-3.34-29.322-19.745-43.855-49.51-43.855-29.76 0-46.777 14.536-51.32 43.839z" stroke="#0B3A7E" stroke-width="2" fill="#6097DF"/><path d="M52.688 125.74l22.858-21.832c13-20.874 6.97-30.868-18.682-30.868-13.11 0-22.54.801-28.256 2.388-5.359 1.488-7.072 3.439-5.788 6.1 4.62 12.196 9.26 21.696 13.912 28.494 4.49 6.561 9.808 11.798 15.956 15.718z" stroke="#0B3A7E" stroke-width="1.76" fill="#FFF"/><path d="M27.349 92.31c3.154 7.136 6.316 13.018 9.482 17.645 4.469 6.529 9.757 11.743 15.87 15.651l16.318-14.35 5.233-14.777c-4.77 4.19-12.396 6.263-22.808 6.263-10.038 0-18.087-3.492-24.095-10.431z" stroke="#0B3A7E" stroke-width="2" fill="#3A6CA6"/><path d="M52.8 125.593c25.292-16.33 37.938-29.625 37.938-39.887 0-15.394-16.942-27.873-37.84-27.873-20.899 0-37.84 12.479-37.84 27.873 0 10.262 12.58 23.558 37.742 39.887zM75.428 82.71c-2.029 28.479-23.443 42.883-22.53 42.883.912 0-21.22-12.773-23.246-41.205 1.98-4.331 9.243-6.497 21.792-6.497 12.548 0 20.543 1.606 23.984 4.82z" stroke="#0B3A7E" stroke-width="2" fill="#6599DE"/><circle stroke="#0B3A7E" stroke-width="2" fill="#FFF" cx="52.898" cy="41.506" r="40.205"/><path d="M11.693 47.907c23.772-5.434 45.85-22.006 56.38-43.36-15.604-6.536-29.346-4.973-41.224 4.69-11.88 9.66-16.931 22.551-15.156 38.67z" stroke="#0B3A7E" stroke-width="2" fill="#38659A"/><path d="M61.083 14.44c3.61 15.814 16.318 28.163 32.325 31.25.463-11.449-1.224-20.365-5.06-26.75C84.51 12.558 77.751 7.507 68.072 3.79l-6.99 10.65z" stroke="#2A5180" stroke-width="2" fill="#38659A"/><path d="M27.28 54.066c1.503-2.047 4.2-3.223 8.09-3.526 3.89-.303 7.01.872 9.362 3.526M59.407 54.066c1.503-2.047 4.2-3.223 8.09-3.526 3.89-.303 7.01.872 9.362 3.526" stroke="#0B3A7E" stroke-width="2.64" stroke-linecap="round"/></g><g transform="translate(0 15)"><path d="M75.201 79.803c-.66 9.265-10.635 16.621-22.845 16.621-12.21 0-22.185-7.356-22.845-16.621" stroke="#8A96A4" stroke-width="1.76"/><path d="M1.036 120.693c7.292 14.668 24.34 22.048 51.32 22.048 26.987 0 43.42-7.38 49.51-22.032-3.34-29.322-19.745-43.855-49.51-43.855-29.76 0-46.777 14.536-51.32 43.839z" stroke="#0B3A7E" stroke-width="2" fill="#3A6CA6"/><path d="M52.355 122.507c24.582-16.027 36.84-29.054 36.84-38.838 0-14.84-16.499-26.993-36.96-26.993-20.46 0-36.96 12.153-36.96 26.993 0 9.783 12.34 22.81 37.08 38.838z" stroke="#0B3A7E" stroke-width="1.76" fill="#2A5180"/><path d="M52.355 122.364c24.504-15.986 36.72-28.975 36.72-38.695 0-14.764-16.438-26.873-36.84-26.873-20.4 0-36.84 12.109-36.84 26.873 0 9.718 12.297 22.708 36.96 38.695z" stroke="#0B3A7E" stroke-width="2" fill="#3A6CA6"/><path d="M52.353 122.32c15.762-15.651 23.643-26.858 23.643-33.374 0-9.85-10.594-17.943-23.76-17.943-13.166 0-23.76 8.093-23.76 17.943 0 6.514 7.96 17.722 23.877 33.374z" stroke="#0B3A7E" stroke-width="1.76" fill="#FFF"/><path d="M72.411 98.439c-.065.109-.131.219-.199.329 2.274-2.329 4.021-5.351 5.339-9.162l-1.9-.626c-1.069 3.41-2.149 6.563-3.24 9.459zm-20.058 23.713c-.231.23-.465.46-.7.692l1.402 1.427 1.55-1.514-1.89-.25a314.7 314.7 0 01-.362-.355zM35.279 103.15a79.776 79.776 0 01-.052-.07l.091.149a116.95 116.95 0 01-.039-.08zm-1.352-2.827a165.6 165.6 0 01-3.052-7.025l-.046-.114-.926.378-.891.454.112.22c1.298 2.503 2.875 4.51 4.803 6.087zm-6.75-10.947a220.503 220.503 0 001.583 4.03l.216.532.927-.376.891-.453-.054-.107a27.055 27.055 0 01-1.55-3.88l-.124-.4-.955.297-.934.357z" stroke="#0B3A7E" stroke-width="2" fill="#6599DE"/><circle stroke="#0B3A7E" stroke-width="2" fill="#FFF" cx="53.44" cy="44.44" r="43.44"/><path d="M16.249 22.212C34.273 36.325 55.623 32.11 80.3 9.57 67.903 1.26 55.808-1.455 44.017 1.426 26.33 5.75 15.079 21.296 16.249 22.212z" stroke="#0B3A7E" stroke-width="2" fill="#9AC0EE"/><path d="M72.633 16.904c1.175 0 5.137 9.335 11.63 13.459 4.328 2.749 8.25 5.04 11.767 6.871-.456-7.17-2.273-13.337-5.45-18.504-3.176-5.166-6.602-8.3-10.28-9.402-5.895 5.05-8.45 7.576-7.667 7.576z" stroke="#0B3A7E" stroke-width="2" fill="#9AC0EE"/><path d="M60.773 42.32a2.2 2.2 0 00-2.2 2.2v8.44a5.72 5.72 0 005.72 5.72h18.92a5.72 5.72 0 005.72-5.72v-8.44a2.2 2.2 0 00-2.2-2.2h-25.96zM18.773 42.32a2.2 2.2 0 00-2.2 2.2v8.44a5.72 5.72 0 005.72 5.72h18.92a5.72 5.72 0 005.72-5.72v-8.44a2.2 2.2 0 00-2.2-2.2h-25.96z" stroke="#0B3A7E" stroke-width="2.64"/><path stroke="#0B3A7E" stroke-width="2.64" stroke-linecap="square" d="M15.253 49l-3.558 1.87M91.253 49l3.559 1.87M47 46.256a12.614 12.614 0 0111.139.312l.153.081h0"/></g></g></svg>