<svg width="261" height="159" xmlns="http://www.w3.org/2000/svg"><g transform="translate(34 7)" fill="none" fill-rule="evenodd"><path d="M85.459 115h22.25a13 13 0 0112.963 12.016c.088 1.154.213 2.32.376 3.5.576 4.159 1.6 8.32 3.072 12.484a3 3 0 01-2.828 4H71.967a3 3 0 01-2.848-3.943c1.745-5.269 2.77-9.013 3.072-11.194.135-.976.226-2.375.272-4.189.176-7.05 5.943-12.674 12.996-12.674z" stroke="#063880" stroke-width="2" fill="#9AC0EE"/><rect stroke="#0B3A7E" stroke-width="2" fill="#E1EDFB" x="1.181" y="1" width="191" height="124" rx="12"/><rect stroke="#0B3A7E" stroke-width="2" fill="#FFF" x="12" y="11" width="169" height="86" rx="5"/><path stroke="#063880" fill="#9AC0EE" d="M50.681 32.5h123v57h-123zM17.681 32.5h26v57h-26zM18.5 16.5h156v10h-156z"/><path stroke="#0B3A7E" fill="#6097DF" d="M72.681 65.5h74v17h-74z"/><circle stroke="#063880" stroke-width="2" fill="#9AC0EE" cx="97.319" cy="111.5" r="7.5"/></g></svg>